<svg xmlns="http://www.w3.org/2000/svg" width="520" height="720" viewBox="0 0 520 720">
<rect width="100%" height="100%" fill="none"/>
<g fill="none" stroke="#3b2517" stroke-width="7" stroke-linecap="round" stroke-linejoin="round" opacity=".92">
<path d="M253 86c-56 3-95 43-96 97 0 47 36 88 89 91 56 4 101-34 106-85 5-54-36-106-99-103z"/>
<path d="M159 174c17-52 58-84 109-79 41 4 72 26 83 66-35-17-58-23-99-19-38 4-65 15-93 32z"/>
<path d="M203 197c10-6 24-5 33 2M288 197c11-7 25-6 35 2"/>
<path d="M252 207c-6 23-8 35-19 49 14 9 31 11 48 1"/>
<path d="M218 284c24 17 64 18 92-1"/>
<path d="M177 279c-22 49-32 101-25 154 41 24 84 35 132 31 36-3 64-15 91-34 3-51-14-108-42-152"/>
<path d="M183 334c57 38 112 40 171 3"/>
<path d="M162 428c-24 52-43 107-63 164M367 427c34 47 55 103 70 165"/>
<path d="M211 464c-6 60-11 116-25 182M310 461c8 62 20 120 34 184"/>
<path d="M157 650c27 12 58 11 86 0M295 648c32 13 62 11 91-1"/>
<path d="M145 371c-31 4-60 18-82 41M378 365c30 7 60 20 83 42"/>
<path d="M80 411c-12 14-19 32-16 51M452 409c9 15 14 34 10 52"/>
<path d="M262 339c2 34 3 69 1 104"/>
</g>
<text x="260" y="705" text-anchor="middle" font-family="Georgia, serif" font-size="34" fill="#3b2517">Ymelin</text>
</svg>